<mxfile host="65bd71144e">
    <diagram id="FdGAYQuawh_kIvAFcOGA" name="development">
        <mxGraphModel dx="2244" dy="1587" grid="1" gridSize="10" guides="1" tooltips="1" connect="1" arrows="1" fold="1" page="0" pageScale="1" pageWidth="850" pageHeight="1100" math="0" shadow="0">
            <root>
                <mxCell id="0"/>
                <mxCell id="1" parent="0"/>
                <mxCell id="85" style="edgeStyle=orthogonalEdgeStyle;shape=connector;rounded=1;html=1;exitX=1;exitY=0.5;exitDx=0;exitDy=0;entryX=0;entryY=0.5;entryDx=0;entryDy=0;strokeColor=#4D4D4D;align=center;verticalAlign=middle;fontFamily=Helvetica;fontSize=12;fontColor=#4D4D4D;labelBackgroundColor=none;endArrow=blockThin;endFill=1;flowAnimation=1;" parent="1" source="2" target="3" edge="1">
                    <mxGeometry relative="1" as="geometry"/>
                </mxCell>
                <mxCell id="2" value="&lt;b&gt;&amp;nbsp;Traditional Software Engineering&lt;/b&gt;" style="rounded=1;whiteSpace=wrap;html=1;fillColor=none;strokeColor=#3399FF;labelBackgroundColor=none;fontColor=#4D4D4D;align=left;verticalAlign=top;arcSize=2;fontFamily=Verdana;" parent="1" vertex="1">
                    <mxGeometry x="-30" y="150" width="300" height="450" as="geometry"/>
                </mxCell>
                <mxCell id="19" value="&amp;nbsp;IDE" style="rounded=1;whiteSpace=wrap;html=1;strokeColor=none;align=left;verticalAlign=top;fontFamily=Verdana;fontSize=12;fontColor=#4D4D4D;labelBackgroundColor=none;fillColor=#66FFB3;fillOpacity=15;arcSize=8;" parent="1" vertex="1">
                    <mxGeometry x="-10" y="355" width="260" height="60" as="geometry"/>
                </mxCell>
                <mxCell id="86" style="edgeStyle=orthogonalEdgeStyle;shape=connector;rounded=1;html=1;exitX=1;exitY=0.5;exitDx=0;exitDy=0;entryX=0;entryY=0.5;entryDx=0;entryDy=0;strokeColor=#4D4D4D;align=center;verticalAlign=middle;fontFamily=Helvetica;fontSize=12;fontColor=#4D4D4D;labelBackgroundColor=none;endArrow=blockThin;endFill=1;flowAnimation=1;" parent="1" source="3" target="4" edge="1">
                    <mxGeometry relative="1" as="geometry"/>
                </mxCell>
                <mxCell id="3" value="&lt;b&gt;&amp;nbsp;Prompt Engineering&lt;/b&gt;" style="rounded=1;whiteSpace=wrap;html=1;fillColor=none;strokeColor=#6666FF;labelBackgroundColor=none;fontColor=#4D4D4D;align=left;verticalAlign=top;arcSize=2;fontFamily=Verdana;" parent="1" vertex="1">
                    <mxGeometry x="350" y="150" width="350" height="450" as="geometry"/>
                </mxCell>
                <mxCell id="87" style="edgeStyle=orthogonalEdgeStyle;shape=connector;rounded=1;html=1;exitX=1;exitY=0.5;exitDx=0;exitDy=0;entryX=0;entryY=0.5;entryDx=0;entryDy=0;strokeColor=#4D4D4D;align=center;verticalAlign=middle;fontFamily=Helvetica;fontSize=12;fontColor=#4D4D4D;labelBackgroundColor=none;endArrow=blockThin;endFill=1;flowAnimation=1;" parent="1" source="4" target="5" edge="1">
                    <mxGeometry relative="1" as="geometry"/>
                </mxCell>
                <mxCell id="4" value="&lt;b&gt;&amp;nbsp;Spec-Driven Development&lt;/b&gt;" style="rounded=1;whiteSpace=wrap;html=1;fillColor=none;strokeColor=#B266FF;labelBackgroundColor=none;fontColor=#4D4D4D;align=left;verticalAlign=top;arcSize=2;fontFamily=Verdana;" parent="1" vertex="1">
                    <mxGeometry x="790" y="150" width="340" height="450" as="geometry"/>
                </mxCell>
                <mxCell id="5" value="&lt;b&gt;&amp;nbsp;Software Engineering&lt;/b&gt;" style="rounded=1;whiteSpace=wrap;html=1;fillColor=none;strokeColor=#FF3399;labelBackgroundColor=none;fontColor=#4D4D4D;align=left;verticalAlign=top;arcSize=2;fontFamily=Verdana;" parent="1" vertex="1">
                    <mxGeometry x="1210" y="150" width="420" height="450" as="geometry"/>
                </mxCell>
                <mxCell id="8" value="" style="edgeStyle=orthogonalEdgeStyle;html=1;fontFamily=Verdana;fontSize=12;fontColor=#4D4D4D;endArrow=blockThin;endFill=1;strokeColor=#4D4D4D;labelBackgroundColor=none;flowAnimation=1;" parent="1" source="6" target="7" edge="1">
                    <mxGeometry relative="1" as="geometry"/>
                </mxCell>
                <mxCell id="6" value="Requirements" style="rounded=1;whiteSpace=wrap;html=1;strokeColor=#4D4D4D;fillColor=none;fontColor=#4D4D4D;fontFamily=Verdana;" parent="1" vertex="1">
                    <mxGeometry x="90" y="190" width="140" height="30" as="geometry"/>
                </mxCell>
                <mxCell id="10" value="" style="edgeStyle=orthogonalEdgeStyle;shape=connector;rounded=1;html=1;strokeColor=#4D4D4D;align=center;verticalAlign=middle;fontFamily=Verdana;fontSize=12;fontColor=#4D4D4D;labelBackgroundColor=none;endArrow=blockThin;endFill=1;flowAnimation=1;" parent="1" source="7" target="9" edge="1">
                    <mxGeometry relative="1" as="geometry"/>
                </mxCell>
                <mxCell id="7" value="Clarify Requirements" style="rounded=1;whiteSpace=wrap;html=1;strokeColor=#4D4D4D;fillColor=none;fontColor=#4D4D4D;fontFamily=Verdana;" parent="1" vertex="1">
                    <mxGeometry x="90" y="250" width="140" height="30" as="geometry"/>
                </mxCell>
                <mxCell id="12" style="edgeStyle=orthogonalEdgeStyle;shape=connector;rounded=1;html=1;exitX=0.5;exitY=1;exitDx=0;exitDy=0;entryX=0.5;entryY=0;entryDx=0;entryDy=0;strokeColor=#4D4D4D;align=center;verticalAlign=middle;fontFamily=Verdana;fontSize=12;fontColor=#4D4D4D;labelBackgroundColor=none;endArrow=blockThin;endFill=1;flowAnimation=1;" parent="1" source="9" target="11" edge="1">
                    <mxGeometry relative="1" as="geometry"/>
                </mxCell>
                <mxCell id="9" value="Design (make a plan)" style="rounded=1;whiteSpace=wrap;html=1;strokeColor=#4D4D4D;fillColor=none;fontColor=#4D4D4D;fontFamily=Verdana;" parent="1" vertex="1">
                    <mxGeometry x="90" y="310" width="140" height="30" as="geometry"/>
                </mxCell>
                <mxCell id="15" style="edgeStyle=orthogonalEdgeStyle;shape=connector;rounded=1;html=1;exitX=0.5;exitY=1;exitDx=0;exitDy=0;entryX=0.5;entryY=0;entryDx=0;entryDy=0;strokeColor=#4D4D4D;align=center;verticalAlign=middle;fontFamily=Verdana;fontSize=12;fontColor=#4D4D4D;labelBackgroundColor=none;endArrow=blockThin;endFill=1;flowAnimation=1;" parent="1" source="11" target="13" edge="1">
                    <mxGeometry relative="1" as="geometry"/>
                </mxCell>
                <mxCell id="11" value="Coding" style="rounded=1;whiteSpace=wrap;html=1;strokeColor=#4D4D4D;fillColor=none;fontColor=#4D4D4D;fontFamily=Verdana;" parent="1" vertex="1">
                    <mxGeometry x="90" y="370" width="140" height="30" as="geometry"/>
                </mxCell>
                <mxCell id="16" style="edgeStyle=orthogonalEdgeStyle;shape=connector;rounded=1;html=1;exitX=0.5;exitY=1;exitDx=0;exitDy=0;entryX=0.5;entryY=0;entryDx=0;entryDy=0;strokeColor=#4D4D4D;align=center;verticalAlign=middle;fontFamily=Verdana;fontSize=12;fontColor=#4D4D4D;labelBackgroundColor=none;endArrow=blockThin;endFill=1;flowAnimation=1;" parent="1" source="13" target="14" edge="1">
                    <mxGeometry relative="1" as="geometry"/>
                </mxCell>
                <mxCell id="13" value="Code Review" style="rounded=1;whiteSpace=wrap;html=1;strokeColor=#4D4D4D;fillColor=none;fontColor=#4D4D4D;fontFamily=Verdana;" parent="1" vertex="1">
                    <mxGeometry x="90" y="430" width="140" height="30" as="geometry"/>
                </mxCell>
                <mxCell id="14" value="Push &amp;amp; Deploy" style="rounded=1;whiteSpace=wrap;html=1;strokeColor=#4D4D4D;fillColor=none;fontColor=#4D4D4D;fontFamily=Verdana;" parent="1" vertex="1">
                    <mxGeometry x="90" y="490" width="140" height="30" as="geometry"/>
                </mxCell>
                <mxCell id="17" style="edgeStyle=orthogonalEdgeStyle;shape=connector;rounded=1;html=1;exitX=0;exitY=0;exitDx=0;exitDy=0;entryX=0;entryY=1;entryDx=0;entryDy=0;strokeColor=#4D4D4D;align=center;verticalAlign=middle;fontFamily=Verdana;fontSize=12;fontColor=#4D4D4D;labelBackgroundColor=none;endArrow=blockThin;endFill=1;flowAnimation=1;" parent="1" source="11" target="11" edge="1">
                    <mxGeometry relative="1" as="geometry">
                        <mxPoint x="80" y="377.5" as="sourcePoint"/>
                        <mxPoint x="80" y="392.5" as="targetPoint"/>
                        <Array as="points">
                            <mxPoint x="30" y="370"/>
                            <mxPoint x="30" y="400"/>
                        </Array>
                    </mxGeometry>
                </mxCell>
                <mxCell id="20" value="multiple&lt;br&gt;iterations" style="edgeLabel;html=1;align=center;verticalAlign=middle;resizable=0;points=[];rounded=1;strokeColor=#4D4D4D;fontFamily=Helvetica;fontSize=10;fontColor=#4D4D4D;labelBackgroundColor=none;fillColor=none;" parent="17" vertex="1" connectable="0">
                    <mxGeometry x="-0.3922" y="-1" relative="1" as="geometry">
                        <mxPoint x="16" y="16" as="offset"/>
                    </mxGeometry>
                </mxCell>
                <mxCell id="18" style="edgeStyle=orthogonalEdgeStyle;shape=connector;rounded=1;html=1;exitX=0;exitY=0;exitDx=0;exitDy=0;strokeColor=#4D4D4D;align=center;verticalAlign=middle;fontFamily=Verdana;fontSize=12;fontColor=#4D4D4D;labelBackgroundColor=none;endArrow=blockThin;endFill=1;flowAnimation=1;entryX=0;entryY=1;entryDx=0;entryDy=0;" parent="1" source="13" target="13" edge="1">
                    <mxGeometry relative="1" as="geometry">
                        <mxPoint x="90" y="430" as="sourcePoint"/>
                        <mxPoint x="90" y="460" as="targetPoint"/>
                        <Array as="points">
                            <mxPoint x="30" y="430"/>
                            <mxPoint x="30" y="460"/>
                        </Array>
                    </mxGeometry>
                </mxCell>
                <mxCell id="21" value="&lt;span style=&quot;font-size: 10px;&quot;&gt;multiple&lt;/span&gt;&lt;br style=&quot;scrollbar-color: rgb(226, 226, 226) rgb(251, 251, 251); font-size: 10px;&quot;&gt;&lt;span style=&quot;font-size: 10px;&quot;&gt;iterations&lt;/span&gt;" style="edgeLabel;html=1;align=center;verticalAlign=middle;resizable=0;points=[];rounded=1;strokeColor=#4D4D4D;fontFamily=Helvetica;fontSize=12;fontColor=#4D4D4D;labelBackgroundColor=none;fillColor=none;" parent="18" vertex="1" connectable="0">
                    <mxGeometry x="-0.5305" relative="1" as="geometry">
                        <mxPoint x="5" y="15" as="offset"/>
                    </mxGeometry>
                </mxCell>
                <mxCell id="22" value="&amp;nbsp;IDE" style="rounded=1;whiteSpace=wrap;html=1;strokeColor=none;align=left;verticalAlign=top;fontFamily=Verdana;fontSize=12;fontColor=#4D4D4D;labelBackgroundColor=none;fillColor=#66FFB3;fillOpacity=15;arcSize=2;" parent="1" vertex="1">
                    <mxGeometry x="380" y="290" width="295" height="180" as="geometry"/>
                </mxCell>
                <mxCell id="23" value="" style="edgeStyle=orthogonalEdgeStyle;html=1;fontFamily=Verdana;fontSize=12;fontColor=#4D4D4D;endArrow=blockThin;endFill=1;strokeColor=#4D4D4D;labelBackgroundColor=none;flowAnimation=1;" parent="1" source="24" target="26" edge="1">
                    <mxGeometry relative="1" as="geometry"/>
                </mxCell>
                <mxCell id="24" value="Requirements" style="rounded=1;whiteSpace=wrap;html=1;strokeColor=#4D4D4D;fillColor=none;fontColor=#4D4D4D;fontFamily=Verdana;" parent="1" vertex="1">
                    <mxGeometry x="495" y="190" width="140" height="30" as="geometry"/>
                </mxCell>
                <mxCell id="25" value="" style="edgeStyle=orthogonalEdgeStyle;shape=connector;rounded=1;html=1;strokeColor=#4D4D4D;align=center;verticalAlign=middle;fontFamily=Verdana;fontSize=12;fontColor=#4D4D4D;labelBackgroundColor=none;endArrow=blockThin;endFill=1;flowAnimation=1;" parent="1" source="26" target="28" edge="1">
                    <mxGeometry relative="1" as="geometry"/>
                </mxCell>
                <mxCell id="26" value="Clarify Requirements" style="rounded=1;whiteSpace=wrap;html=1;strokeColor=#4D4D4D;fillColor=none;fontColor=#4D4D4D;fontFamily=Verdana;" parent="1" vertex="1">
                    <mxGeometry x="495" y="250" width="140" height="30" as="geometry"/>
                </mxCell>
                <mxCell id="27" style="edgeStyle=orthogonalEdgeStyle;shape=connector;rounded=1;html=1;exitX=0.5;exitY=1;exitDx=0;exitDy=0;entryX=0.5;entryY=0;entryDx=0;entryDy=0;strokeColor=#4D4D4D;align=center;verticalAlign=middle;fontFamily=Verdana;fontSize=12;fontColor=#4D4D4D;labelBackgroundColor=none;endArrow=blockThin;endFill=1;flowAnimation=1;" parent="1" source="28" target="30" edge="1">
                    <mxGeometry relative="1" as="geometry"/>
                </mxCell>
                <mxCell id="28" value="Design (plan with prompts)" style="rounded=1;whiteSpace=wrap;html=1;strokeColor=#4D4D4D;fillColor=none;fontColor=#4D4D4D;fontFamily=Verdana;" parent="1" vertex="1">
                    <mxGeometry x="470" y="310" width="190" height="30" as="geometry"/>
                </mxCell>
                <mxCell id="29" style="edgeStyle=orthogonalEdgeStyle;shape=connector;rounded=1;html=1;exitX=0.5;exitY=1;exitDx=0;exitDy=0;entryX=0.5;entryY=0;entryDx=0;entryDy=0;strokeColor=#4D4D4D;align=center;verticalAlign=middle;fontFamily=Verdana;fontSize=12;fontColor=#4D4D4D;labelBackgroundColor=none;endArrow=blockThin;endFill=1;flowAnimation=1;" parent="1" source="30" target="32" edge="1">
                    <mxGeometry relative="1" as="geometry"/>
                </mxCell>
                <mxCell id="30" value="AI Writes Code" style="rounded=1;whiteSpace=wrap;html=1;strokeColor=#4D4D4D;fillColor=none;fontColor=#4D4D4D;fontFamily=Verdana;" parent="1" vertex="1">
                    <mxGeometry x="495" y="370" width="140" height="30" as="geometry"/>
                </mxCell>
                <mxCell id="31" style="edgeStyle=orthogonalEdgeStyle;shape=connector;rounded=1;html=1;exitX=0.5;exitY=1;exitDx=0;exitDy=0;entryX=0.5;entryY=0;entryDx=0;entryDy=0;strokeColor=#4D4D4D;align=center;verticalAlign=middle;fontFamily=Verdana;fontSize=12;fontColor=#4D4D4D;labelBackgroundColor=none;endArrow=blockThin;endFill=1;flowAnimation=1;" parent="1" source="32" target="33" edge="1">
                    <mxGeometry relative="1" as="geometry"/>
                </mxCell>
                <mxCell id="32" value="Review AI Code" style="rounded=1;whiteSpace=wrap;html=1;strokeColor=#4D4D4D;fillColor=none;fontColor=#4D4D4D;fontFamily=Verdana;" parent="1" vertex="1">
                    <mxGeometry x="495" y="430" width="140" height="30" as="geometry"/>
                </mxCell>
                <mxCell id="39" style="edgeStyle=orthogonalEdgeStyle;shape=connector;rounded=1;html=1;exitX=0.5;exitY=1;exitDx=0;exitDy=0;entryX=0.5;entryY=0;entryDx=0;entryDy=0;strokeColor=#4D4D4D;align=center;verticalAlign=middle;fontFamily=Helvetica;fontSize=12;fontColor=#4D4D4D;labelBackgroundColor=none;endArrow=blockThin;endFill=1;flowAnimation=1;" parent="1" source="33" target="38" edge="1">
                    <mxGeometry relative="1" as="geometry"/>
                </mxCell>
                <mxCell id="33" value="Code Review" style="rounded=1;whiteSpace=wrap;html=1;strokeColor=#4D4D4D;fillColor=none;fontColor=#4D4D4D;fontFamily=Verdana;" parent="1" vertex="1">
                    <mxGeometry x="495" y="490" width="140" height="30" as="geometry"/>
                </mxCell>
                <mxCell id="34" style="edgeStyle=orthogonalEdgeStyle;shape=connector;rounded=1;html=1;exitX=0;exitY=1;exitDx=0;exitDy=0;entryX=0;entryY=1;entryDx=0;entryDy=0;strokeColor=#4D4D4D;align=center;verticalAlign=middle;fontFamily=Verdana;fontSize=12;fontColor=#4D4D4D;labelBackgroundColor=none;endArrow=blockThin;endFill=1;flowAnimation=1;" parent="1" edge="1">
                    <mxGeometry relative="1" as="geometry">
                        <mxPoint x="460" y="400" as="sourcePoint"/>
                        <mxPoint x="460" y="400" as="targetPoint"/>
                        <Array as="points">
                            <mxPoint x="460" y="370"/>
                            <mxPoint x="400" y="370"/>
                            <mxPoint x="400" y="400"/>
                        </Array>
                    </mxGeometry>
                </mxCell>
                <mxCell id="35" value="multiple&lt;br&gt;iterations" style="edgeLabel;html=1;align=center;verticalAlign=middle;resizable=0;points=[];rounded=1;strokeColor=#4D4D4D;fontFamily=Helvetica;fontSize=10;fontColor=#4D4D4D;labelBackgroundColor=none;fillColor=none;" parent="34" vertex="1" connectable="0">
                    <mxGeometry x="-0.3922" y="-1" relative="1" as="geometry">
                        <mxPoint x="-10" y="16" as="offset"/>
                    </mxGeometry>
                </mxCell>
                <mxCell id="36" style="edgeStyle=orthogonalEdgeStyle;shape=connector;rounded=1;html=1;exitX=0;exitY=0;exitDx=0;exitDy=0;strokeColor=#4D4D4D;align=center;verticalAlign=middle;fontFamily=Verdana;fontSize=12;fontColor=#4D4D4D;labelBackgroundColor=none;endArrow=blockThin;endFill=1;flowAnimation=1;entryX=0;entryY=1;entryDx=0;entryDy=0;" parent="1" source="33" target="33" edge="1">
                    <mxGeometry relative="1" as="geometry">
                        <mxPoint x="495" y="490" as="sourcePoint"/>
                        <mxPoint x="495.0000000000002" y="520.0000000000001" as="targetPoint"/>
                        <Array as="points">
                            <mxPoint x="435" y="490"/>
                            <mxPoint x="435" y="520"/>
                        </Array>
                    </mxGeometry>
                </mxCell>
                <mxCell id="37" value="&lt;span style=&quot;font-size: 10px;&quot;&gt;multiple&lt;/span&gt;&lt;br style=&quot;scrollbar-color: rgb(226, 226, 226) rgb(251, 251, 251); font-size: 10px;&quot;&gt;&lt;span style=&quot;font-size: 10px;&quot;&gt;iterations&lt;/span&gt;" style="edgeLabel;html=1;align=center;verticalAlign=middle;resizable=0;points=[];rounded=1;strokeColor=#4D4D4D;fontFamily=Helvetica;fontSize=12;fontColor=#4D4D4D;labelBackgroundColor=none;fillColor=none;" parent="36" vertex="1" connectable="0">
                    <mxGeometry x="-0.5305" relative="1" as="geometry">
                        <mxPoint x="5" y="15" as="offset"/>
                    </mxGeometry>
                </mxCell>
                <mxCell id="38" value="&lt;span style=&quot;&quot;&gt;Push &amp;amp; Deploy&lt;/span&gt;" style="rounded=1;whiteSpace=wrap;html=1;strokeColor=#4D4D4D;fillColor=none;fontColor=#4D4D4D;fontFamily=Verdana;" parent="1" vertex="1">
                    <mxGeometry x="495" y="550" width="140" height="30" as="geometry"/>
                </mxCell>
                <mxCell id="41" value="&amp;nbsp;IDE" style="rounded=1;whiteSpace=wrap;html=1;strokeColor=none;align=left;verticalAlign=top;fontFamily=Verdana;fontSize=12;fontColor=#4D4D4D;labelBackgroundColor=none;fillColor=#66FFB3;fillOpacity=15;arcSize=2;" parent="1" vertex="1">
                    <mxGeometry x="812.5" y="230" width="295" height="240" as="geometry"/>
                </mxCell>
                <mxCell id="42" value="" style="edgeStyle=orthogonalEdgeStyle;html=1;fontFamily=Verdana;fontSize=12;fontColor=#4D4D4D;endArrow=blockThin;endFill=1;strokeColor=#4D4D4D;labelBackgroundColor=none;flowAnimation=1;" parent="1" source="43" target="45" edge="1">
                    <mxGeometry relative="1" as="geometry"/>
                </mxCell>
                <mxCell id="43" value="Requirements" style="rounded=1;whiteSpace=wrap;html=1;strokeColor=#4D4D4D;fillColor=none;fontColor=#4D4D4D;fontFamily=Verdana;" parent="1" vertex="1">
                    <mxGeometry x="927.5" y="190" width="140" height="30" as="geometry"/>
                </mxCell>
                <mxCell id="44" value="" style="edgeStyle=orthogonalEdgeStyle;shape=connector;rounded=1;html=1;strokeColor=#4D4D4D;align=center;verticalAlign=middle;fontFamily=Verdana;fontSize=12;fontColor=#4D4D4D;labelBackgroundColor=none;endArrow=blockThin;endFill=1;flowAnimation=1;" parent="1" source="45" target="47" edge="1">
                    <mxGeometry relative="1" as="geometry"/>
                </mxCell>
                <mxCell id="45" value="Clarify Requirements" style="rounded=1;whiteSpace=wrap;html=1;strokeColor=#4D4D4D;fillColor=none;fontColor=#4D4D4D;fontFamily=Verdana;" parent="1" vertex="1">
                    <mxGeometry x="927.5" y="250" width="140" height="30" as="geometry"/>
                </mxCell>
                <mxCell id="46" style="edgeStyle=orthogonalEdgeStyle;shape=connector;rounded=1;html=1;exitX=0.5;exitY=1;exitDx=0;exitDy=0;entryX=0.5;entryY=0;entryDx=0;entryDy=0;strokeColor=#4D4D4D;align=center;verticalAlign=middle;fontFamily=Verdana;fontSize=12;fontColor=#4D4D4D;labelBackgroundColor=none;endArrow=blockThin;endFill=1;flowAnimation=1;" parent="1" source="47" target="49" edge="1">
                    <mxGeometry relative="1" as="geometry"/>
                </mxCell>
                <mxCell id="47" value="Design (write a spec)" style="rounded=1;whiteSpace=wrap;html=1;strokeColor=#4D4D4D;fillColor=none;fontColor=#4D4D4D;fontFamily=Verdana;" parent="1" vertex="1">
                    <mxGeometry x="902.5" y="310" width="190" height="30" as="geometry"/>
                </mxCell>
                <mxCell id="48" style="edgeStyle=orthogonalEdgeStyle;shape=connector;rounded=1;html=1;exitX=0.5;exitY=1;exitDx=0;exitDy=0;entryX=0.5;entryY=0;entryDx=0;entryDy=0;strokeColor=#4D4D4D;align=center;verticalAlign=middle;fontFamily=Verdana;fontSize=12;fontColor=#4D4D4D;labelBackgroundColor=none;endArrow=blockThin;endFill=1;flowAnimation=1;" parent="1" source="49" target="51" edge="1">
                    <mxGeometry relative="1" as="geometry"/>
                </mxCell>
                <mxCell id="49" value="AI Writes Code" style="rounded=1;whiteSpace=wrap;html=1;strokeColor=#4D4D4D;fillColor=none;fontColor=#4D4D4D;fontFamily=Verdana;" parent="1" vertex="1">
                    <mxGeometry x="927.5" y="370" width="140" height="30" as="geometry"/>
                </mxCell>
                <mxCell id="50" style="edgeStyle=orthogonalEdgeStyle;shape=connector;rounded=1;html=1;exitX=0.5;exitY=1;exitDx=0;exitDy=0;entryX=0.5;entryY=0;entryDx=0;entryDy=0;strokeColor=#4D4D4D;align=center;verticalAlign=middle;fontFamily=Verdana;fontSize=12;fontColor=#4D4D4D;labelBackgroundColor=none;endArrow=blockThin;endFill=1;flowAnimation=1;" parent="1" source="51" target="53" edge="1">
                    <mxGeometry relative="1" as="geometry"/>
                </mxCell>
                <mxCell id="51" value="Review AI Code" style="rounded=1;whiteSpace=wrap;html=1;strokeColor=#4D4D4D;fillColor=none;fontColor=#4D4D4D;fontFamily=Verdana;" parent="1" vertex="1">
                    <mxGeometry x="927.5" y="430" width="140" height="30" as="geometry"/>
                </mxCell>
                <mxCell id="52" style="edgeStyle=orthogonalEdgeStyle;shape=connector;rounded=1;html=1;exitX=0.5;exitY=1;exitDx=0;exitDy=0;entryX=0.5;entryY=0;entryDx=0;entryDy=0;strokeColor=#4D4D4D;align=center;verticalAlign=middle;fontFamily=Helvetica;fontSize=12;fontColor=#4D4D4D;labelBackgroundColor=none;endArrow=blockThin;endFill=1;flowAnimation=1;" parent="1" source="53" target="58" edge="1">
                    <mxGeometry relative="1" as="geometry"/>
                </mxCell>
                <mxCell id="53" value="Code Review" style="rounded=1;whiteSpace=wrap;html=1;strokeColor=#4D4D4D;fillColor=none;fontColor=#4D4D4D;fontFamily=Verdana;" parent="1" vertex="1">
                    <mxGeometry x="927.5" y="490" width="140" height="30" as="geometry"/>
                </mxCell>
                <mxCell id="54" style="edgeStyle=orthogonalEdgeStyle;shape=connector;rounded=1;html=1;exitX=0;exitY=1;exitDx=0;exitDy=0;entryX=0;entryY=1;entryDx=0;entryDy=0;strokeColor=#4D4D4D;align=center;verticalAlign=middle;fontFamily=Verdana;fontSize=12;fontColor=#4D4D4D;labelBackgroundColor=none;endArrow=blockThin;endFill=1;flowAnimation=1;" parent="1" edge="1">
                    <mxGeometry relative="1" as="geometry">
                        <mxPoint x="890" y="380" as="sourcePoint"/>
                        <mxPoint x="890" y="380" as="targetPoint"/>
                        <Array as="points">
                            <mxPoint x="890" y="350"/>
                            <mxPoint x="830" y="350"/>
                            <mxPoint x="830" y="380"/>
                        </Array>
                    </mxGeometry>
                </mxCell>
                <mxCell id="55" value="multiple&lt;br&gt;iterations" style="edgeLabel;html=1;align=center;verticalAlign=middle;resizable=0;points=[];rounded=1;strokeColor=#4D4D4D;fontFamily=Helvetica;fontSize=10;fontColor=#4D4D4D;labelBackgroundColor=none;fillColor=none;" parent="54" vertex="1" connectable="0">
                    <mxGeometry x="-0.3922" y="-1" relative="1" as="geometry">
                        <mxPoint x="-10" y="16" as="offset"/>
                    </mxGeometry>
                </mxCell>
                <mxCell id="56" style="edgeStyle=orthogonalEdgeStyle;shape=connector;rounded=1;html=1;exitX=0;exitY=0;exitDx=0;exitDy=0;strokeColor=#4D4D4D;align=center;verticalAlign=middle;fontFamily=Verdana;fontSize=12;fontColor=#4D4D4D;labelBackgroundColor=none;endArrow=blockThin;endFill=1;flowAnimation=1;entryX=0;entryY=1;entryDx=0;entryDy=0;" parent="1" source="53" target="53" edge="1">
                    <mxGeometry relative="1" as="geometry">
                        <mxPoint x="927.5" y="490" as="sourcePoint"/>
                        <mxPoint x="927.5000000000002" y="520.0000000000001" as="targetPoint"/>
                        <Array as="points">
                            <mxPoint x="867.5" y="490"/>
                            <mxPoint x="867.5" y="520"/>
                        </Array>
                    </mxGeometry>
                </mxCell>
                <mxCell id="57" value="&lt;span style=&quot;font-size: 10px;&quot;&gt;multiple&lt;/span&gt;&lt;br style=&quot;scrollbar-color: rgb(226, 226, 226) rgb(251, 251, 251); font-size: 10px;&quot;&gt;&lt;span style=&quot;font-size: 10px;&quot;&gt;iterations&lt;/span&gt;" style="edgeLabel;html=1;align=center;verticalAlign=middle;resizable=0;points=[];rounded=1;strokeColor=#4D4D4D;fontFamily=Helvetica;fontSize=12;fontColor=#4D4D4D;labelBackgroundColor=none;fillColor=none;" parent="56" vertex="1" connectable="0">
                    <mxGeometry x="-0.5305" relative="1" as="geometry">
                        <mxPoint x="5" y="15" as="offset"/>
                    </mxGeometry>
                </mxCell>
                <mxCell id="58" value="&lt;span style=&quot;&quot;&gt;Push &amp;amp; Deploy&lt;/span&gt;" style="rounded=1;whiteSpace=wrap;html=1;strokeColor=#4D4D4D;fillColor=none;fontColor=#4D4D4D;fontFamily=Verdana;" parent="1" vertex="1">
                    <mxGeometry x="927.5" y="550" width="140" height="30" as="geometry"/>
                </mxCell>
                <mxCell id="59" value="&amp;nbsp;IDE" style="rounded=1;whiteSpace=wrap;html=1;strokeColor=none;align=left;verticalAlign=top;fontFamily=Verdana;fontSize=12;fontColor=#4D4D4D;labelBackgroundColor=none;fillColor=#66FFB3;fillOpacity=15;arcSize=2;" parent="1" vertex="1">
                    <mxGeometry x="1230" y="230" width="380" height="240" as="geometry"/>
                </mxCell>
                <mxCell id="60" value="" style="edgeStyle=orthogonalEdgeStyle;html=1;fontFamily=Verdana;fontSize=12;fontColor=#4D4D4D;endArrow=blockThin;endFill=1;strokeColor=#4D4D4D;labelBackgroundColor=none;flowAnimation=1;" parent="1" source="61" target="63" edge="1">
                    <mxGeometry relative="1" as="geometry"/>
                </mxCell>
                <mxCell id="61" value="Requirements" style="rounded=1;whiteSpace=wrap;html=1;strokeColor=#4D4D4D;fillColor=none;fontColor=#4D4D4D;fontFamily=Verdana;" parent="1" vertex="1">
                    <mxGeometry x="1345" y="190" width="140" height="30" as="geometry"/>
                </mxCell>
                <mxCell id="62" value="" style="edgeStyle=orthogonalEdgeStyle;shape=connector;rounded=1;html=1;strokeColor=#4D4D4D;align=center;verticalAlign=middle;fontFamily=Verdana;fontSize=12;fontColor=#4D4D4D;labelBackgroundColor=none;endArrow=blockThin;endFill=1;flowAnimation=1;" parent="1" source="63" target="65" edge="1">
                    <mxGeometry relative="1" as="geometry"/>
                </mxCell>
                <mxCell id="63" value="Clarify Requirements" style="rounded=1;whiteSpace=wrap;html=1;strokeColor=#4D4D4D;fillColor=none;fontColor=#4D4D4D;fontFamily=Verdana;" parent="1" vertex="1">
                    <mxGeometry x="1345" y="250" width="140" height="30" as="geometry"/>
                </mxCell>
                <mxCell id="64" style="edgeStyle=orthogonalEdgeStyle;shape=connector;rounded=1;html=1;exitX=0.5;exitY=1;exitDx=0;exitDy=0;entryX=0.5;entryY=0;entryDx=0;entryDy=0;strokeColor=#4D4D4D;align=center;verticalAlign=middle;fontFamily=Verdana;fontSize=12;fontColor=#4D4D4D;labelBackgroundColor=none;endArrow=blockThin;endFill=1;flowAnimation=1;" parent="1" source="65" target="67" edge="1">
                    <mxGeometry relative="1" as="geometry"/>
                </mxCell>
                <mxCell id="65" value="Design (write a spec)" style="rounded=1;whiteSpace=wrap;html=1;strokeColor=#4D4D4D;fillColor=none;fontColor=#4D4D4D;fontFamily=Verdana;" parent="1" vertex="1">
                    <mxGeometry x="1320" y="310" width="190" height="30" as="geometry"/>
                </mxCell>
                <mxCell id="66" style="edgeStyle=orthogonalEdgeStyle;shape=connector;rounded=1;html=1;exitX=0.5;exitY=1;exitDx=0;exitDy=0;entryX=0.5;entryY=0;entryDx=0;entryDy=0;strokeColor=#4D4D4D;align=center;verticalAlign=middle;fontFamily=Verdana;fontSize=12;fontColor=#4D4D4D;labelBackgroundColor=none;endArrow=blockThin;endFill=1;flowAnimation=1;" parent="1" source="67" target="69" edge="1">
                    <mxGeometry relative="1" as="geometry"/>
                </mxCell>
                <mxCell id="67" value="AI Writes Code" style="rounded=1;whiteSpace=wrap;html=1;strokeColor=#4D4D4D;fillColor=none;fontColor=#4D4D4D;fontFamily=Verdana;" parent="1" vertex="1">
                    <mxGeometry x="1345" y="370" width="140" height="30" as="geometry"/>
                </mxCell>
                <mxCell id="68" style="edgeStyle=orthogonalEdgeStyle;shape=connector;rounded=1;html=1;exitX=0.5;exitY=1;exitDx=0;exitDy=0;entryX=0.5;entryY=0;entryDx=0;entryDy=0;strokeColor=#4D4D4D;align=center;verticalAlign=middle;fontFamily=Verdana;fontSize=12;fontColor=#4D4D4D;labelBackgroundColor=none;endArrow=blockThin;endFill=1;flowAnimation=1;" parent="1" source="69" target="71" edge="1">
                    <mxGeometry relative="1" as="geometry"/>
                </mxCell>
                <mxCell id="69" value="Review AI Code" style="rounded=1;whiteSpace=wrap;html=1;strokeColor=#4D4D4D;fillColor=none;fontColor=#4D4D4D;fontFamily=Verdana;" parent="1" vertex="1">
                    <mxGeometry x="1345" y="430" width="140" height="30" as="geometry"/>
                </mxCell>
                <mxCell id="70" style="edgeStyle=orthogonalEdgeStyle;shape=connector;rounded=1;html=1;exitX=0.5;exitY=1;exitDx=0;exitDy=0;entryX=0.5;entryY=0;entryDx=0;entryDy=0;strokeColor=#4D4D4D;align=center;verticalAlign=middle;fontFamily=Helvetica;fontSize=12;fontColor=#4D4D4D;labelBackgroundColor=none;endArrow=blockThin;endFill=1;flowAnimation=1;" parent="1" source="71" target="76" edge="1">
                    <mxGeometry relative="1" as="geometry"/>
                </mxCell>
                <mxCell id="71" value="Code Review" style="rounded=1;whiteSpace=wrap;html=1;strokeColor=#4D4D4D;fillColor=none;fontColor=#4D4D4D;fontFamily=Verdana;" parent="1" vertex="1">
                    <mxGeometry x="1345" y="490" width="140" height="30" as="geometry"/>
                </mxCell>
                <mxCell id="72" style="edgeStyle=orthogonalEdgeStyle;shape=connector;rounded=1;html=1;exitX=0;exitY=1;exitDx=0;exitDy=0;entryX=0;entryY=1;entryDx=0;entryDy=0;strokeColor=#4D4D4D;align=center;verticalAlign=middle;fontFamily=Verdana;fontSize=12;fontColor=#4D4D4D;labelBackgroundColor=none;endArrow=blockThin;endFill=1;flowAnimation=1;" parent="1" edge="1">
                    <mxGeometry relative="1" as="geometry">
                        <mxPoint x="1307.5" y="380" as="sourcePoint"/>
                        <mxPoint x="1307.5" y="380" as="targetPoint"/>
                        <Array as="points">
                            <mxPoint x="1307.5" y="350"/>
                            <mxPoint x="1247.5" y="350"/>
                            <mxPoint x="1247.5" y="380"/>
                        </Array>
                    </mxGeometry>
                </mxCell>
                <mxCell id="73" value="multiple&lt;br&gt;iterations" style="edgeLabel;html=1;align=center;verticalAlign=middle;resizable=0;points=[];rounded=1;strokeColor=#4D4D4D;fontFamily=Helvetica;fontSize=10;fontColor=#4D4D4D;labelBackgroundColor=none;fillColor=none;" parent="72" vertex="1" connectable="0">
                    <mxGeometry x="-0.3922" y="-1" relative="1" as="geometry">
                        <mxPoint x="-10" y="16" as="offset"/>
                    </mxGeometry>
                </mxCell>
                <mxCell id="74" style="edgeStyle=orthogonalEdgeStyle;shape=connector;rounded=1;html=1;exitX=0;exitY=0;exitDx=0;exitDy=0;strokeColor=#4D4D4D;align=center;verticalAlign=middle;fontFamily=Verdana;fontSize=12;fontColor=#4D4D4D;labelBackgroundColor=none;endArrow=blockThin;endFill=1;flowAnimation=1;entryX=0;entryY=1;entryDx=0;entryDy=0;" parent="1" source="71" target="71" edge="1">
                    <mxGeometry relative="1" as="geometry">
                        <mxPoint x="1345" y="490" as="sourcePoint"/>
                        <mxPoint x="1345.0000000000002" y="520.0000000000001" as="targetPoint"/>
                        <Array as="points">
                            <mxPoint x="1285" y="490"/>
                            <mxPoint x="1285" y="520"/>
                        </Array>
                    </mxGeometry>
                </mxCell>
                <mxCell id="75" value="&lt;span style=&quot;font-size: 10px;&quot;&gt;multiple&lt;/span&gt;&lt;br style=&quot;scrollbar-color: rgb(226, 226, 226) rgb(251, 251, 251); font-size: 10px;&quot;&gt;&lt;span style=&quot;font-size: 10px;&quot;&gt;iterations&lt;/span&gt;" style="edgeLabel;html=1;align=center;verticalAlign=middle;resizable=0;points=[];rounded=1;strokeColor=#4D4D4D;fontFamily=Helvetica;fontSize=12;fontColor=#4D4D4D;labelBackgroundColor=none;fillColor=none;" parent="74" vertex="1" connectable="0">
                    <mxGeometry x="-0.5305" relative="1" as="geometry">
                        <mxPoint x="5" y="15" as="offset"/>
                    </mxGeometry>
                </mxCell>
                <mxCell id="76" value="&lt;span style=&quot;&quot;&gt;Push &amp;amp; Deploy&lt;/span&gt;" style="rounded=1;whiteSpace=wrap;html=1;strokeColor=#4D4D4D;fillColor=none;fontColor=#4D4D4D;fontFamily=Verdana;" parent="1" vertex="1">
                    <mxGeometry x="1345" y="550" width="140" height="30" as="geometry"/>
                </mxCell>
                <mxCell id="83" style="edgeStyle=orthogonalEdgeStyle;shape=connector;rounded=1;html=1;exitX=0;exitY=0.25;exitDx=0;exitDy=0;entryX=1;entryY=0.5;entryDx=0;entryDy=0;strokeColor=#4D4D4D;align=center;verticalAlign=middle;fontFamily=Helvetica;fontSize=12;fontColor=#4D4D4D;labelBackgroundColor=none;endArrow=blockThin;endFill=1;flowAnimation=1;" parent="1" source="82" target="67" edge="1">
                    <mxGeometry relative="1" as="geometry"/>
                </mxCell>
                <mxCell id="84" style="edgeStyle=orthogonalEdgeStyle;shape=connector;rounded=1;html=1;exitX=0;exitY=0.75;exitDx=0;exitDy=0;entryX=1;entryY=0.5;entryDx=0;entryDy=0;strokeColor=#4D4D4D;align=center;verticalAlign=middle;fontFamily=Helvetica;fontSize=12;fontColor=#4D4D4D;labelBackgroundColor=none;endArrow=blockThin;endFill=1;flowAnimation=1;" parent="1" source="82" target="69" edge="1">
                    <mxGeometry relative="1" as="geometry"/>
                </mxCell>
                <mxCell id="82" value="Prompts" style="rounded=1;whiteSpace=wrap;html=1;strokeColor=#4D4D4D;fillColor=none;fontColor=#4D4D4D;fontFamily=Verdana;" parent="1" vertex="1">
                    <mxGeometry x="1520" y="400" width="70" height="30" as="geometry"/>
                </mxCell>
            </root>
        </mxGraphModel>
    </diagram>
</mxfile>
